<svg version="1.0" xmlns="http://www.w3.org/2000/svg" width="600.000000pt" height="600.000000pt"
        viewBox="0 0 600.000000 600.000000" preserveAspectRatio="xMidYMid meet">

        <g transform="translate(0.000000,600.000000) scale(0.100000,-0.100000)" fill="#000000" stroke="none">
                <path d="M2810 5723 c-859 -53 -1670 -523 -2143 -1244 -548 -834 -591 -1912
-110 -2774 371 -666 1005 -1154 1743 -1342 262 -66 360 -77 695 -78 314 0 380
6 610 56 1065 233 1904 1077 2115 2130 82 410 64 877 -50 1269 -231 799 -821
1454 -1597 1776 -388 161 -829 233 -1263 207z m468 -53 c665 -72 1257 -360
1710 -835 885 -927 987 -2335 244 -3373 -259 -364 -604 -654 -1017 -857 -569
-281 -1203 -355 -1832 -215 -992 221 -1786 989 -2033 1965 -62 244 -74 353
-75 645 0 197 4 281 18 370 79 504 258 913 573 1305 90 113 291 312 407 405
401 320 885 522 1397 584 139 17 475 20 608 6z" />
                <path d="M1065 3546 c-51 -22 -93 -65 -122 -124 l-28 -57 -3 -297 -3 -298 50
0 51 0 0 255 c0 290 7 341 54 393 28 30 40 36 87 39 64 5 108 -17 136 -69 16
-29 18 -67 21 -325 l3 -293 55 0 54 0 0 288 c0 260 2 291 19 329 23 49 62 73
123 73 55 0 99 -27 124 -76 17 -35 19 -67 22 -326 l3 -288 56 0 55 0 -4 283
c-6 318 -12 353 -75 426 -47 56 -101 80 -176 81 -71 0 -120 -20 -169 -67 l-37
-36 -24 29 c-40 48 -104 74 -178 74 -35 -1 -77 -7 -94 -14z" />
                <path d="M3720 3155 l0 -385 53 0 c49 0 53 3 68 33 21 42 68 73 124 82 61 9
130 -24 164 -77 23 -36 27 -38 78 -38 l53 0 -15 36 c-30 73 -100 134 -179 155
-41 11 -124 8 -161 -6 -11 -4 46 59 128 141 81 82 147 153 147 157 0 4 -27 7
-59 7 l-59 0 -116 -122 -116 -123 0 263 0 262 -55 0 -55 0 0 -385z" />
                <path d="M4982 3404 c-43 -30 -21 -94 33 -94 36 0 55 20 55 59 0 19 -34 51
-55 51 -6 0 -21 -7 -33 -16z" />
                <path d="M1932 3097 c3 -159 4 -165 33 -222 23 -45 42 -66 79 -90 46 -28 56
-30 146 -30 90 0 100 2 146 30 37 24 56 45 79 90 29 57 30 63 34 222 l3 163
-51 0 -51 0 0 -114 c0 -130 -12 -211 -38 -245 -34 -46 -69 -65 -119 -65 -67 1
-106 24 -134 81 -21 42 -24 66 -27 196 l-4 147 -50 0 -50 0 4 -163z" />
                <path d="M2520 3215 l0 -45 155 0 155 0 -155 -196 c-85 -107 -155 -197 -155
-200 0 -2 108 -4 240 -4 l240 0 0 40 0 39 -151 3 -151 3 156 198 c86 110 156
201 156 203 0 2 -110 4 -245 4 l-245 0 0 -45z" />
                <path d="M3070 3157 c0 -142 18 -198 81 -260 33 -31 64 -51 94 -59 l45 -12 0
-198 0 -198 55 0 55 0 0 200 c0 184 1 200 18 200 32 1 98 37 135 75 52 53 67
108 67 242 l0 113 -49 0 -49 0 -4 -112 c-2 -90 -7 -121 -24 -153 -36 -71 -138
-104 -217 -71 -75 31 -107 108 -107 256 l0 80 -50 0 -50 0 0 -103z" />
                <path d="M4340 3107 c0 -171 10 -219 60 -279 44 -53 105 -78 194 -78 198 0
272 112 264 400 l-3 105 -50 0 -50 0 -5 -155 c-5 -169 -15 -200 -73 -244 -43
-32 -124 -28 -170 7 -52 40 -67 98 -67 264 l0 133 -50 0 -50 0 0 -153z" />
                <path d="M4967 3254 c-4 -4 -7 -136 -7 -294 0 -279 -1 -288 -23 -330 -32 -60
-75 -82 -153 -78 -73 4 -125 38 -145 93 -13 34 -15 35 -66 35 -36 0 -53 -4
-53 -12 1 -31 41 -97 83 -135 118 -109 333 -91 416 34 44 66 52 141 49 433
l-3 255 -45 3 c-25 2 -49 0 -53 -4z" />
                <path d="M3227 2613 c-14 -13 -6 -33 13 -33 13 0 20 7 20 20 0 19 -20 27 -33
13z" />
                <path d="M3437 2613 c-14 -13 -6 -33 13 -33 13 0 20 7 20 20 0 19 -20 27 -33
13z" />
                <path d="M3222 2533 c2 -10 10 -18 18 -18 8 0 16 8 18 18 2 12 -3 17 -18 17
-15 0 -20 -5 -18 -17z" />
                <path d="M3432 2533 c5 -26 38 -29 38 -4 0 15 -6 21 -21 21 -14 0 -19 -5 -17
-17z" />
                <path d="M3222 2463 c2 -10 10 -18 18 -18 8 0 16 8 18 18 2 12 -3 17 -18 17
-15 0 -20 -5 -18 -17z" />
                <path d="M3432 2463 c2 -10 10 -18 18 -18 8 0 16 8 18 18 2 12 -3 17 -18 17
-15 0 -20 -5 -18 -17z" />
        </g>
</svg>